<svg width="116" height="61" viewBox="0 0 116 61" fill="none" xmlns="http://www.w3.org/2000/svg">
<path d="M86.542 48.0001H84.9589L82.4164 44.4742C81.7928 45.0339 81.1292 45.5617 80.4256 46.0574C79.7381 46.5371 79.0105 46.9607 78.243 47.3285C77.4754 47.6803 76.6839 47.9601 75.8684 48.168C75.0689 48.3759 74.2534 48.4798 73.4219 48.4798C71.6149 48.4798 69.912 48.1441 68.3129 47.4725C66.7299 46.7849 65.3387 45.8414 64.1395 44.6421C62.9562 43.4269 62.0207 41.9957 61.3331 40.3487C60.6456 38.6857 60.3018 36.8788 60.3018 34.928C60.3018 32.9931 60.6456 31.1942 61.3331 29.5312C62.0207 27.8683 62.9562 26.4291 64.1395 25.2138C65.3387 23.9986 66.7299 23.0471 68.3129 22.3595C69.912 21.672 71.6149 21.3282 73.4219 21.3282C73.9975 21.3282 74.5892 21.3761 75.1968 21.4721C75.8204 21.568 76.4201 21.7279 76.9957 21.9518C77.5873 22.1597 78.139 22.4396 78.6507 22.7914C79.1624 23.1432 79.5941 23.5748 79.9459 24.0865V12.0938H86.542V48.0001ZM79.9459 34.928C79.9459 34.0325 79.77 33.169 79.4182 32.3375C79.0824 31.49 78.6187 30.7465 78.0271 30.1069C77.4354 29.4513 76.7399 28.9317 75.9403 28.5479C75.1568 28.1482 74.3173 27.9482 73.4219 27.9482C72.5264 27.9482 71.6789 28.1081 70.8794 28.4279C70.0959 28.7477 69.4083 29.2114 68.8166 29.8191C68.241 30.4107 67.7853 31.1383 67.4495 32.0017C67.1137 32.8652 66.9458 33.8406 66.9458 34.928C66.9458 35.8714 67.1137 36.7669 67.4495 37.6144C67.7853 38.4618 68.241 39.2054 68.8166 39.845C69.4083 40.4846 70.0959 40.9883 70.8794 41.3561C71.6789 41.7239 72.5264 41.9078 73.4219 41.9078C74.3173 41.9078 75.1568 41.7159 75.9403 41.3321C76.7399 40.9324 77.4354 40.4127 78.0271 39.7731C78.6187 39.1175 79.0824 38.3739 79.4182 37.5424C79.77 36.6949 79.9459 35.8234 79.9459 34.928ZM101.773 41.716C102.029 41.7959 102.284 41.8519 102.54 41.8839C102.796 41.8999 103.052 41.9078 103.308 41.9078C103.947 41.9078 104.563 41.8198 105.155 41.6439C105.746 41.468 106.298 41.2202 106.81 40.9004C107.337 40.5646 107.801 40.1648 108.201 39.7011C108.617 39.2214 108.952 38.6937 109.208 38.1181L114.005 42.9391C113.398 43.8026 112.694 44.5782 111.895 45.2657C111.111 45.9533 110.256 46.5371 109.328 47.0168C108.417 47.4965 107.449 47.8563 106.426 48.0961C105.419 48.352 104.379 48.4798 103.308 48.4798C101.501 48.4798 99.798 48.1441 98.1989 47.4725C96.6159 46.8009 95.2247 45.8654 94.0254 44.6661C92.8422 43.4668 91.9067 42.0437 91.2191 40.3967C90.5316 38.7337 90.1878 36.9108 90.1878 34.928C90.1878 32.8972 90.5316 31.0423 91.2191 29.3633C91.9067 27.6843 92.8422 26.2532 94.0254 25.0699C95.2247 23.8866 96.6159 22.9673 98.1989 22.3117C99.798 21.6561 101.501 21.3282 103.308 21.3282C104.379 21.3282 105.427 21.4561 106.45 21.7119C107.473 21.9678 108.441 22.3357 109.352 22.8154C110.28 23.2951 111.143 23.8866 111.943 24.5902C112.742 25.2778 113.446 26.0534 114.053 26.9169L101.773 41.716ZM105.131 28.2121C104.827 28.1002 104.523 28.0282 104.219 27.9962C103.931 27.9643 103.628 27.9482 103.308 27.9482C102.412 27.9482 101.565 28.1162 100.765 28.452C99.9819 28.7718 99.2943 29.2354 98.7026 29.843C98.127 30.4507 97.6713 31.1862 97.3355 32.0497C96.9997 32.8972 96.8318 33.8566 96.8318 34.928C96.8318 35.1678 96.8398 35.4397 96.8557 35.7435C96.8877 36.0473 96.9277 36.3591 96.9757 36.6789C97.0396 36.9827 97.1116 37.2786 97.1915 37.5664C97.2715 37.8542 97.3754 38.1102 97.5034 38.334L105.131 28.2121Z" fill="black"/>
<path d="M1.95264 23.9183C1.95264 22.4952 2.22447 21.16 2.76814 19.9127C3.31182 18.6655 4.04737 17.5781 4.97482 16.6507C5.91825 15.7073 7.01359 14.9637 8.26084 14.42C9.50808 13.8764 10.8433 13.6045 12.2664 13.6045H28.0489V20.4884H12.2664C11.7867 20.4884 11.339 20.5763 10.9232 20.7522C10.5075 20.9281 10.1397 21.176 9.8199 21.4958C9.51608 21.7996 9.27622 22.1594 9.10033 22.5751C8.92444 22.9909 8.83649 23.4386 8.83649 23.9183C8.83649 24.398 8.92444 24.8537 9.10033 25.2855C9.27622 25.7012 9.51608 26.069 9.8199 26.3888C10.1397 26.6926 10.5075 26.9325 10.9232 27.1084C11.339 27.2843 11.7867 27.3722 12.2664 27.3722H19.1503C20.5734 27.3722 21.9086 27.6441 23.1559 28.1877C24.4191 28.7154 25.5144 29.451 26.4419 30.3944C27.3853 31.3218 28.1209 32.4172 28.6486 33.6804C29.1922 34.9277 29.4641 36.2629 29.4641 37.686C29.4641 39.1092 29.1922 40.4444 28.6486 41.6916C28.1209 42.9388 27.3853 44.0342 26.4419 44.9776C25.5144 45.9051 24.4191 46.6406 23.1559 47.1843C21.9086 47.728 20.5734 47.9998 19.1503 47.9998H3.87148V41.1159H19.1503C19.63 41.1159 20.0777 41.028 20.4935 40.8521C20.9092 40.6762 21.269 40.4364 21.5728 40.1325C21.8926 39.8127 22.1405 39.445 22.3164 39.0292C22.4923 38.6135 22.5802 38.1657 22.5802 37.686C22.5802 37.2063 22.4923 36.7586 22.3164 36.3428C22.1405 35.9271 21.8926 35.5673 21.5728 35.2635C21.269 34.9437 20.9092 34.6958 20.4935 34.5199C20.0777 34.344 19.63 34.2561 19.1503 34.2561H12.2664C10.8433 34.2561 9.50808 33.9842 8.26084 33.4406C7.01359 32.8969 5.91825 32.1613 4.97482 31.2339C4.04737 30.2905 3.31182 29.1951 2.76814 27.9479C2.22447 26.6846 1.95264 25.3414 1.95264 23.9183Z" fill="black"/>
<path d="M29.98 22.9946C33.7041 41.0905 45.869 46.2109 61.1018 43.7634" stroke="black" stroke-width="6.38743"/>
<path d="M41.2124 25.9111C41.7282 28.5582 44.102 34.4989 49.4707 37.0851" stroke="black" stroke-width="5.10995"/>
<path d="M41.0184 22.9948C42.6059 22.9948 43.8927 21.7079 43.8927 20.1204C43.8927 18.533 42.6059 17.2461 41.0184 17.2461C39.4309 17.2461 38.144 18.533 38.144 20.1204C38.144 21.7079 39.4309 22.9948 41.0184 22.9948Z" fill="black"/>
</svg>
